<svg id="Layer_1" data-name="Layer 1" xmlns="http://www.w3.org/2000/svg" viewBox="0 0 88.57 67.2" style=""><defs><style>.cls-1{fill:none;stroke:#fff;stroke-linecap:round;stroke-linejoin:round;stroke-width:2px;}</style></defs><title>oxalicacid</title><g id="OerFRZ"><path class="cls-1 GQsBWFtN_0" d="M44.81,55c-.19-.05-.53-.05-.56-.15-.6-1.9-2.2-1.59-3.5-1.39S38.81,55.48,39,57.14a2.85,2.85,0,0,0,2,2.61c1.68.28,2.53-.2,3.34-1.89" transform="translate(-8.67 -16.78)"></path><path class="cls-1 GQsBWFtN_1" d="M66.59,42c-1-1.42-1.94-2-3-1.59a2.94,2.94,0,0,0-2.34,2.75C61.12,45,61.77,46.48,63,47s2.71-.27,3.49-1.74" transform="translate(-8.67 -16.78)"></path><path class="cls-1 GQsBWFtN_2" d="M81.55,54.23c-.1-.68-.78-.9-1.19-1.12-3.77-2-7.45-4.25-11.15-6.43A1.73,1.73,0,0,0,68,46.39" transform="translate(-8.67 -16.78)"></path><path class="cls-1 GQsBWFtN_3" d="M59.48,45.81c-.46,1.31-1.84,1.4-2.79,2-3.37,2.09-6.85,4-10.28,6" transform="translate(-8.67 -16.78)"></path><path class="cls-1 GQsBWFtN_4" d="M24.33,46.39l12.93,7.55" transform="translate(-8.67 -16.78)"></path><path class="cls-1 GQsBWFtN_5" d="M40.45,62.07c0,3.59,0,7.17,0,10.75a3.09,3.09,0,0,1-.14,1.45" transform="translate(-8.67 -16.78)"></path><path class="cls-1 GQsBWFtN_6" d="M43.07,62.07v12.2" transform="translate(-8.67 -16.78)"></path><path class="cls-1 GQsBWFtN_7" d="M65.14,26.64V37.1a3.12,3.12,0,0,0,.14,1.45" transform="translate(-8.67 -16.78)"></path><path class="cls-1 GQsBWFtN_8" d="M62.53,26.64V38.26" transform="translate(-8.67 -16.78)"></path><path class="cls-1 GQsBWFtN_9" d="M96.07,56.41H91.42" transform="translate(-8.67 -16.78)"></path><path class="cls-1 GQsBWFtN_10" d="M14,43.49H10.1" transform="translate(-8.67 -16.78)"></path><path class="cls-1 GQsBWFtN_11" d="M9.81,40.73A44.81,44.81,0,0,1,9.67,47" transform="translate(-8.67 -16.78)"></path><path class="cls-1 GQsBWFtN_12" d="M14.31,40.58V47" transform="translate(-8.67 -16.78)"></path><path class="cls-1 GQsBWFtN_13" d="M91.13,53.51V59.6" transform="translate(-8.67 -16.78)"></path><path class="cls-1 GQsBWFtN_14" d="M96.14,53.8a42.21,42.21,0,0,1,0,5.51" transform="translate(-8.67 -16.78)"></path><path class="cls-1 GQsBWFtN_15" d="M63.4,17.78a3.54,3.54,0,0,0-2.18,5.08,2.94,2.94,0,0,0,3.19,1.46A2.89,2.89,0,0,0,66.74,22c.64-2.54-.5-4-3.2-4.21" transform="translate(-8.67 -16.78)"></path><path class="cls-1 GQsBWFtN_16" d="M19.4,40.29c-2.63,1.1-3.51,2.79-2.62,4.94A2.58,2.58,0,0,0,19.39,47a2.6,2.6,0,0,0,2.77-1.77c1-2.43.18-4.08-2.62-4.94" transform="translate(-8.67 -16.78)"></path><path class="cls-1 GQsBWFtN_17" d="M85,53.36c-2,1.53-2.36,2.32-1.74,4.21s1.6,2.52,3.63,2.18a3.07,3.07,0,0,0,2.18-3c.08-2.43-1-3.34-3.92-3.34" transform="translate(-8.67 -16.78)"></path><path class="cls-1 GQsBWFtN_18" d="M40.89,76c-2,1.17-2.46,2.15-2,4.22.26,1.23,1.79,2.76,2.76,2.76s2.59-1.45,2.91-2.62C45.26,77.65,44,76,41,76" transform="translate(-8.67 -16.78)"></path></g><style data-made-with="vivus-instant">.GQsBWFtN_0{stroke-dasharray:18 20;stroke-dashoffset:19;animation:GQsBWFtN_draw 262ms ease 0ms forwards;}.GQsBWFtN_1{stroke-dasharray:17 19;stroke-dashoffset:18;animation:GQsBWFtN_draw 248ms ease 262ms forwards;}.GQsBWFtN_2{stroke-dasharray:16 18;stroke-dashoffset:17;animation:GQsBWFtN_draw 234ms ease 510ms forwards;}.GQsBWFtN_3{stroke-dasharray:16 18;stroke-dashoffset:17;animation:GQsBWFtN_draw 234ms ease 745ms forwards;}.GQsBWFtN_4{stroke-dasharray:15 17;stroke-dashoffset:16;animation:GQsBWFtN_draw 220ms ease 980ms forwards;}.GQsBWFtN_5{stroke-dasharray:13 15;stroke-dashoffset:14;animation:GQsBWFtN_draw 193ms ease 1201ms forwards;}.GQsBWFtN_6{stroke-dasharray:13 15;stroke-dashoffset:14;animation:GQsBWFtN_draw 193ms ease 1394ms forwards;}.GQsBWFtN_7{stroke-dasharray:12 14;stroke-dashoffset:13;animation:GQsBWFtN_draw 179ms ease 1587ms forwards;}.GQsBWFtN_8{stroke-dasharray:12 14;stroke-dashoffset:13;animation:GQsBWFtN_draw 179ms ease 1767ms forwards;}.GQsBWFtN_9{stroke-dasharray:5 7;stroke-dashoffset:6;animation:GQsBWFtN_draw 82ms ease 1946ms forwards;}.GQsBWFtN_10{stroke-dasharray:4 6;stroke-dashoffset:5;animation:GQsBWFtN_draw 69ms ease 2029ms forwards;}.GQsBWFtN_11{stroke-dasharray:7 9;stroke-dashoffset:8;animation:GQsBWFtN_draw 110ms ease 2098ms forwards;}.GQsBWFtN_12{stroke-dasharray:7 9;stroke-dashoffset:8;animation:GQsBWFtN_draw 110ms ease 2208ms forwards;}.GQsBWFtN_13{stroke-dasharray:7 9;stroke-dashoffset:8;animation:GQsBWFtN_draw 110ms ease 2319ms forwards;}.GQsBWFtN_14{stroke-dasharray:6 8;stroke-dashoffset:7;animation:GQsBWFtN_draw 96ms ease 2429ms forwards;}.GQsBWFtN_15{stroke-dasharray:20 22;stroke-dashoffset:21;animation:GQsBWFtN_draw 289ms ease 2526ms forwards;}.GQsBWFtN_16{stroke-dasharray:20 22;stroke-dashoffset:21;animation:GQsBWFtN_draw 289ms ease 2816ms forwards;}.GQsBWFtN_17{stroke-dasharray:20 22;stroke-dashoffset:21;animation:GQsBWFtN_draw 289ms ease 3106ms forwards;}.GQsBWFtN_18{stroke-dasharray:21 23;stroke-dashoffset:22;animation:GQsBWFtN_draw 303ms ease 3396ms forwards;}@keyframes GQsBWFtN_draw{100%{stroke-dashoffset:0;}}@keyframes GQsBWFtN_fade{0%{stroke-opacity:1;}94.9367088607595%{stroke-opacity:1;}100%{stroke-opacity:0;}}</style></svg>